Coordinates
version=1
nRows=8
nColumns=63
inDegrees=yes

Units are S.I. units (second, meters, Newtons, ...)
If the header above contains a line with 'inDegrees', this indicates whether rotational values are in degrees (yes) or radians (no).

endheader
time	pelvis_tilt	pelvis_list	pelvis_rotation	pelvis_tx	pelvis_ty	pelvis_tz	hip_flexion_r	hip_adduction_r	hip_rotation_r	knee_angle_r	knee_angle_r_beta	ankle_angle_r	subtalar_angle_r	mtp_angle_r	hip_flexion_l	hip_adduction_l	hip_rotation_l	knee_angle_l	knee_angle_l_beta	ankle_angle_l	subtalar_angle_l	mtp_angle_l	L5_S1_Flex_Ext	L5_S1_Lat_Bending	L5_S1_axial_rotation	L4_L5_Flex_Ext	L4_L5_Lat_Bending	L4_L5_axial_rotation	L3_L4_Flex_Ext	L3_L4_Lat_Bending	L3_L4_axial_rotation	L2_L3_Flex_Ext	L2_L3_Lat_Bending	L2_L3_axial_rotation	L1_L2_Flex_Ext	L1_L2_Lat_Bending	L1_L2_axial_rotation	L1_T12_Flex_Ext	L1_T12_Lat_Bending	L1_T12_axial_rotation	Abs_r3	Abs_r2	Abs_r1	Abs_t1	Abs_t2	neck_flexion	neck_bending	neck_rotation	arm_flex_r	arm_add_r	arm_rot_r	elbow_flex_r	pro_sup_r	wrist_flex_r	wrist_dev_r	arm_flex_l	arm_add_l	arm_rot_l	elbow_flex_l	pro_sup_l	wrist_flex_l	wrist_dev_l
3.350000	2.539365	-1.739172	97.182223	0.267259	0.816893	0.579723	-3.464938	3.472910	-8.787275	5.093617	0.088900	29.950983	10.693436	0.000000	-2.482000	-2.713235	6.919851	3.482565	0.060782	31.923415	4.428948	0.000000	-0.002582	0.530901	-0.807564	-0.004796	0.706098	-0.858037	-0.004243	1.290832	-0.858037	-0.002951	1.290832	-0.706619	-0.002398	1.082613	-0.656146	-0.001476	0.822366	-0.605673	-0.018446	6.005657	-4.491430	0.000000	0.000000	3.873135	0.322989	4.738133	-13.279746	-17.711334	-4.250183	98.741075	84.357769	0.754765	23.803280	31.767134	-12.346402	25.021539	140.991568	88.210608	6.632766	-9.114334
3.366667	2.428874	-1.679172	96.941188	0.268213	0.817012	0.578909	-3.622452	3.375491	-8.614557	4.990742	0.087105	29.928919	10.838247	0.000000	-2.734149	-2.636025	6.992051	3.238774	0.056527	31.723030	3.864922	0.000000	0.012670	0.488064	-0.837058	0.023529	0.649125	-0.889374	0.020815	1.186678	-0.889374	0.014480	1.186678	-0.732425	0.011765	0.995260	-0.680109	0.007239	0.756011	-0.627793	0.090497	5.521076	-4.655463	0.000000	0.000000	3.137879	0.354819	5.612097	-12.865148	-17.831470	-3.465171	98.371264	83.841337	0.758859	23.965747	31.303298	-12.699953	24.565356	141.262581	88.330594	6.082069	-9.414406
3.383333	2.315457	-1.621960	96.723592	0.269184	0.817134	0.578066	-3.808643	3.287385	-8.304446	4.813987	0.084020	29.861782	10.820346	0.000000	-2.974882	-2.561645	7.062526	3.019929	0.052708	31.525856	3.315266	0.000000	0.024994	0.442445	-0.857187	0.046416	0.588452	-0.910762	0.041062	1.075762	-0.910762	0.028565	1.075762	-0.750039	0.023209	0.902235	-0.696465	0.014281	0.685348	-0.642891	0.178526	5.005030	-4.767420	0.000000	0.000000	2.373896	0.551731	6.463447	-12.471336	-17.896077	-2.772232	98.054695	83.253726	0.758459	24.124032	30.888281	-13.058252	24.179003	141.436191	88.460097	5.212318	-9.837401
3.400000	2.201620	-1.572564	96.550758	0.270126	0.817246	0.577204	-4.029141	3.214266	-7.811693	4.547709	0.079372	29.723875	10.556217	0.000000	-3.190472	-2.493952	7.089665	2.835017	0.049480	31.347933	2.869342	0.000000	0.034948	0.394379	-0.870831	0.064902	0.524525	-0.925258	0.057416	0.958894	-0.925258	0.039942	0.958894	-0.761978	0.032453	0.804219	-0.707551	0.019969	0.610894	-0.653124	0.249630	4.461299	-4.843303	0.000000	0.000000	1.571063	0.905445	7.237492	-12.118112	-17.894477	-2.196105	97.791975	82.647192	0.777138	24.238170	30.525619	-13.418452	23.866526	141.505440	88.600271	4.014184	-10.235328
3.416667	2.093122	-1.537080	96.416906	0.271021	0.817338	0.576410	-4.258703	3.157389	-7.188620	4.230209	0.073831	29.533502	10.112963	0.000000	-3.351262	-2.440058	6.751949	2.723627	0.047536	31.289030	2.972880	0.000000	0.041470	0.346037	-0.872263	0.077013	0.460230	-0.926780	0.068130	0.841355	-0.926780	0.047396	0.841355	-0.763230	0.038509	0.705640	-0.708714	0.023696	0.536012	-0.654197	0.296213	3.914445	-4.851267	0.000000	0.000000	0.750510	1.402757	7.935484	-11.828316	-17.838767	-1.761740	97.611335	82.014866	0.762567	24.320281	30.247470	-13.767363	23.676938	141.396338	88.738445	2.439090	-10.789567
3.433333	1.993697	-1.518037	96.332896	0.271829	0.817393	0.575649	-4.502557	3.121639	-6.422515	3.857916	0.067333	29.293042	9.464748	0.000000	-3.477291	-2.394848	6.554779	2.634970	0.045989	31.213021	2.970872	0.000000	0.045701	0.298470	-0.870832	0.084871	0.396966	-0.925259	0.075082	0.725701	-0.925259	0.052231	0.725701	-0.761978	0.042438	0.608641	-0.707551	0.026113	0.462331	-0.653124	0.326436	3.376356	-4.843309	0.000000	0.000000	-0.084309	1.974324	8.551795	-11.593841	-17.731393	-1.452643	97.491298	81.445065	0.801223	24.344753	30.007859	-14.106202	23.527740	141.180442	88.867692	0.684649	-11.165575
3.450000	1.905616	-1.512134	96.282318	0.272528	0.817421	0.574927	-4.736931	3.095457	-5.756174	3.499051	0.061070	29.073384	8.924844	0.000000	-3.587309	-2.347911	6.715387	2.541114	0.044351	31.057564	2.576693	0.000000	0.047179	0.253100	-0.862539	0.087615	0.336623	-0.916448	0.077510	0.615388	-0.916448	0.053920	0.615388	-0.754722	0.043810	0.516122	-0.700813	0.026958	0.392052	-0.646904	0.336992	2.863120	-4.797183	0.000000	0.000000	-0.916857	2.621516	9.096589	-11.431877	-17.589356	-1.277883	97.436285	80.946217	0.888342	24.309563	29.812141	-14.425395	23.456689	140.853487	88.981884	-1.265852	-11.406115
3.466667	1.820987	-1.514667	96.274430	0.273147	0.817414	0.574235	-4.983566	3.079604	-5.077912	3.116110	0.054386	28.843631	8.346022	0.000000	-3.672924	-2.303349	6.949331	2.468514	0.043084	30.913489	2.194336	0.000000	0.045970	0.207890	-0.846646	0.085371	0.276493	-0.899562	0.075524	0.505463	-0.899562	0.052539	0.505463	-0.740816	0.042688	0.423929	-0.687900	0.026267	0.322021	-0.634985	0.328358	2.351690	-4.708793	0.000000	0.000000	-1.695370	3.344952	9.486496	-11.376872	-17.398304	-1.240224	97.445174	80.466271	0.970906	24.192406	29.678177	-14.711022	23.468244	140.428945	89.068358	-3.285826	-11.532143
